#!OML:ASF H:\GeneralSubjects\Female5\Project 1\Capture day 1\Session 1\Female5.ASF
:FULLY-SPECIFIED
:DEGREES
415
root 4.43437 16.1355 3.33255 -250.276 -72.4124 -118.091
lowerback 26.1544 -1.6583 -7.27929
upperback -0.13557 -3.50623 9.71497
thorax -13.4895 -0.924344 16.4312
lowerneck -12.9092 -6.05984 -5.61982
upperneck 37.8801 -13.3893 7.21693
head 16.8171 -6.27258 1.4849
rclavicle 7.53751e-015 1.98785e-015
rhumerus -66.3049 15.5553 -61.2536
rradius 32.6408
rwrist -3.98655
rhand -23.9129 -15.1353
rfingers 7.12502
rthumb 2.56145 -45.0997
lclavicle 7.53751e-015 1.98785e-015
lhumerus -12.8353 -39.1628 68.1295
lradius 91.0372
lwrist -18.4003
lhand -35.2814 25.2659
lfingers 7.12502
lthumb -8.41636 55.0782
rfemur -69.867 0.724672 6.95069
rtibia 66.599
rfoot 535.61 17.6394
rtoes -14.2466
lfemur 1.50716 -13.5477 -14.0843
ltibia 23.3485
lfoot 334.504 5.27455
ltoes -71.8126
416
root 4.43321 16.1432 3.37391 -255.175 -71.7714 -113.888
lowerback 27.24 -1.76833 -6.64427
upperback 0.114216 -3.50421 9.99296
thorax -13.7741 -0.965872 16.4487
lowerneck -12.1785 -6.21814 -6.02119
upperneck 37.8451 -13.9758 7.99226
head 16.8126 -6.52676 1.80472
rclavicle -8.73977e-014 -5.68524e-014
rhumerus -66.2921 15.2847 -60.6506
rradius 30.5617
rwrist -2.62487
rhand -23.8285 -14.742
rfingers 7.12502
rthumb 2.64301 -44.7054
lclavicle -8.73977e-014 -5.68524e-014
lhumerus -9.73874 -39.6027 67.9362
lradius 90.0606
lwrist -18.6741
lhand -35.7951 25.0816
lfingers 7.12502
lthumb -8.91208 54.8734
rfemur -69.283 -0.861158 3.47579
rtibia 76.4588
rfoot 533.588 19.4205
rtoes -7.02826
lfemur 2.2059 -14.2867 -13.3769
ltibia 23.1601
lfoot 334.29 4.91184
ltoes -71.6132
417
root 4.42962 16.1542 3.42353 -259.011 -71.4797 -110.579
lowerback 28.0335 -1.78674 -6.55929
upperback 0.308525 -3.53276 10.1819
thorax -13.9342 -0.986693 16.6845
lowerneck -11.7912 -6.47343 -6.77055
upperneck 38.2382 -14.8814 9.01591
head 17.2545 -6.92621 2.21522
rclavicle 5.78588e-014 -2.3059e-014
rhumerus -65.9112 15.1318 -59.9643
rradius 28.4771
rwrist -1.4468
rhand -23.971 -14.9636
rfingers 7.12502
rthumb 2.5054 -44.9286
lclavicle 5.78588e-014 -2.3059e-014
lhumerus -6.98533 -39.8173 68.4522
lradius 88.8158
lwrist -18.8039
lhand -35.6303 25.2156
lfingers 7.12502
lthumb -8.75302 55.0141
rfemur -67.0903 -2.99209 -0.0188424
rtibia 90.1093
rfoot 413.915 46.1286
rtoes 1.83126
lfemur 2.63686 -15.2067 -13.3828
ltibia 23.2333
lfoot 334.066 4.80342
ltoes -71.3959
418
root 4.42553 16.171 3.47516 -261.632 -71.1271 -108.17
lowerback 28.5284 -1.69465 -6.71193
upperback 0.394341 -3.46493 10.4017
thorax -14.0923 -0.932502 17.0618
lowerneck -11.1111 -6.38008 -5.83739
upperneck 38.0385 -14.8058 8.60303
head 16.814 -6.85255 1.92128
rclavicle 4.91681e-015 5.96354e-015
rhumerus -65.2264 15.0038 -59.0582
rradius 26.5132
rwrist -0.661051
rhand -23.7628 -15.3898
rfingers 7.12502
rthumb 2.7064 -45.3524
lclavicle 4.91681e-015 5.96354e-015
lhumerus -5.15383 -39.6001 69.8538
lradius 87.607
lwrist -18.681
lhand -35.1169 24.3516
lfingers 7.12502
lthumb -8.25762 54.1702
rfemur -63.1644 -4.64245 -3.32332
rtibia 75.3259
rfoot 349.396 -24.4874
rtoes 7.74836
lfemur 2.70861 -16.1015 -13.3799
ltibia 23.4306
lfoot 334.138 4.80158
ltoes -71.0644
419
root 4.41672 16.192 3.52725 -263.409 -70.8478 -106.269
lowerback 28.6881 -1.54832 -7.13811
upperback 0.342821 -3.38928 10.6087
thorax -14.2397 -0.838934 17.5825
lowerneck -10.7602 -6.60408 -5.80588
upperneck 38.4039 -15.4931 8.82174
head 17.0418 -7.14259 1.88912
rclavicle 1.09021e-015 9.14409e-015
rhumerus -64.5157 14.9553 -58.0651
rradius 24.9875
rwrist -0.108079
rhand -23.4017 -15.6112
rfingers 7.12502
rthumb 3.05513 -45.5691
lclavicle 1.09021e-015 9.14409e-015
lhumerus -4.4395 -39.1569 72.0676
lradius 86.629
lwrist -18.7746
lhand -35.0407 23.1507
lfingers 7.12502
lthumb -8.18402 52.9722
rfemur -57.4411 -5.01291 -7.2183
rtibia 55.9577
rfoot 350.511 -24.315
rtoes 5.23695
lfemur 2.50531 -17.1457 -13.4975
ltibia 23.614
lfoot 334.433 4.99639
ltoes -70.6997
420
root 4.39378 16.2196 3.5762 -264.577 -70.714 -104.62
lowerback 28.3898 -1.43502 -7.80901
upperback 0.0991478 -3.4066 10.757
thorax -14.3475 -0.752073 18.2083
lowerneck -10.3418 -6.69329 -5.43831
upperneck 38.7839 -15.8609 8.62816
head 17.1298 -7.30474 1.68718
rclavicle 4.21903e-014 4.01545e-014
rhumerus -64.1263 15.2949 -57.4096
rradius 24.1167
rwrist 0.300198
rhand -23.3267 -15.7147
rfingers 7.12502
rthumb 3.12763 -45.6715
lclavicle 4.21903e-014 4.01545e-014
lhumerus -4.71688 -38.7101 74.9103
lradius 85.9403
lwrist -19.3286
lhand -35.078 22.8582
lfingers 7.12502
lthumb -8.22006 52.6783
rfemur -50.2008 -2.69898 -12.5051
rtibia 33.4628
rfoot 344.818 -23.8242
rtoes 17.9594
lfemur 2.02144 -18.2738 -13.729
ltibia 23.8005
lfoot 334.531 5.51235
ltoes -70.4936
